<svg width="25" height="25" viewBox="0 0 25 25" fill="none" xmlns="http://www.w3.org/2000/svg">
<g clip-path="url(#clip0_3_171)">
<path d="M23.4375 18.75C23.4375 19.1644 23.2729 19.5618 22.9799 19.8549C22.6868 20.1479 22.2894 20.3125 21.875 20.3125H3.125C2.7106 20.3125 2.31317 20.1479 2.02015 19.8549C1.72712 19.5618 1.5625 19.1644 1.5625 18.75V9.375C1.5625 8.9606 1.72712 8.56317 2.02015 8.27015C2.31317 7.97712 2.7106 7.8125 3.125 7.8125H4.95625C6.19881 7.81182 7.39026 7.31782 8.26875 6.43906L9.56563 5.14531C9.85782 4.85303 10.2539 4.68842 10.6672 4.6875H14.3297C14.7441 4.68759 15.1414 4.85227 15.4344 5.14531L16.7281 6.43906C17.1635 6.87455 17.6804 7.22 18.2493 7.45566C18.8182 7.69132 19.428 7.81257 20.0438 7.8125H21.875C22.2894 7.8125 22.6868 7.97712 22.9799 8.27015C23.2729 8.56317 23.4375 8.9606 23.4375 9.375V18.75ZM3.125 6.25C2.2962 6.25 1.50134 6.57924 0.915291 7.16529C0.32924 7.75134 0 8.5462 0 9.375L0 18.75C0 19.5788 0.32924 20.3737 0.915291 20.9597C1.50134 21.5458 2.2962 21.875 3.125 21.875H21.875C22.7038 21.875 23.4987 21.5458 24.0847 20.9597C24.6708 20.3737 25 19.5788 25 18.75V9.375C25 8.5462 24.6708 7.75134 24.0847 7.16529C23.4987 6.57924 22.7038 6.25 21.875 6.25H20.0438C19.215 6.24982 18.4203 5.92047 17.8344 5.33438L16.5406 4.04062C15.9547 3.45453 15.16 3.12518 14.3313 3.125H10.6687C9.84002 3.12518 9.04529 3.45453 8.45938 4.04062L7.16563 5.33438C6.57971 5.92047 5.78498 6.24982 4.95625 6.25H3.125Z" fill="#B9B9B9"/>
<path d="M12.5 17.1875C11.464 17.1875 10.4704 16.7759 9.73786 16.0434C9.0053 15.3108 8.59375 14.3173 8.59375 13.2812C8.59375 12.2452 9.0053 11.2517 9.73786 10.5191C10.4704 9.78655 11.464 9.375 12.5 9.375C13.536 9.375 14.5296 9.78655 15.2621 10.5191C15.9947 11.2517 16.4062 12.2452 16.4062 13.2812C16.4062 14.3173 15.9947 15.3108 15.2621 16.0434C14.5296 16.7759 13.536 17.1875 12.5 17.1875ZM12.5 18.75C13.9504 18.75 15.3414 18.1738 16.367 17.1482C17.3926 16.1227 17.9688 14.7317 17.9688 13.2812C17.9688 11.8308 17.3926 10.4398 16.367 9.41426C15.3414 8.38867 13.9504 7.8125 12.5 7.8125C11.0496 7.8125 9.6586 8.38867 8.63301 9.41426C7.60742 10.4398 7.03125 11.8308 7.03125 13.2812C7.03125 14.7317 7.60742 16.1227 8.63301 17.1482C9.6586 18.1738 11.0496 18.75 12.5 18.75ZM4.6875 10.1562C4.6875 10.3635 4.60519 10.5622 4.45868 10.7087C4.31216 10.8552 4.11345 10.9375 3.90625 10.9375C3.69905 10.9375 3.50034 10.8552 3.35382 10.7087C3.20731 10.5622 3.125 10.3635 3.125 10.1562C3.125 9.94905 3.20731 9.75034 3.35382 9.60382C3.50034 9.45731 3.69905 9.375 3.90625 9.375C4.11345 9.375 4.31216 9.45731 4.45868 9.60382C4.60519 9.75034 4.6875 9.94905 4.6875 10.1562Z" fill="#B9B9B9"/>
</g>
<defs>
<clipPath id="clip0_3_171">
<rect width="25" height="25" fill="white"/>
</clipPath>
</defs>
</svg>
