<svg width="23" height="23" viewBox="0 0 23 23" fill="none" xmlns="http://www.w3.org/2000/svg">
<path d="M5.03125 9.34375C5.22187 9.34375 5.40469 9.41948 5.53948 9.55427C5.67427 9.68906 5.75 9.87188 5.75 10.0625V11.5C5.75 13.025 6.3558 14.4875 7.43414 15.5659C8.51247 16.6442 9.97501 17.25 11.5 17.25C13.025 17.25 14.4875 16.6442 15.5659 15.5659C16.6442 14.4875 17.25 13.025 17.25 11.5V10.0625C17.25 9.87188 17.3257 9.68906 17.4605 9.55427C17.5953 9.41948 17.7781 9.34375 17.9688 9.34375C18.1594 9.34375 18.3422 9.41948 18.477 9.55427C18.6118 9.68906 18.6875 9.87188 18.6875 10.0625V11.5C18.6875 13.2818 18.0257 15.0001 16.8304 16.3216C15.6351 17.643 13.9916 18.4734 12.2188 18.6516V21.5625H16.5312C16.7219 21.5625 16.9047 21.6382 17.0395 21.773C17.1743 21.9078 17.25 22.0906 17.25 22.2812C17.25 22.4719 17.1743 22.6547 17.0395 22.7895C16.9047 22.9243 16.7219 23 16.5312 23H6.46875C6.27813 23 6.09531 22.9243 5.96052 22.7895C5.82573 22.6547 5.75 22.4719 5.75 22.2812C5.75 22.0906 5.82573 21.9078 5.96052 21.773C6.09531 21.6382 6.27813 21.5625 6.46875 21.5625H10.7812V18.6516C9.00836 18.4734 7.36485 17.643 6.16958 16.3216C4.9743 15.0001 4.31248 13.2818 4.3125 11.5V10.0625C4.3125 9.87188 4.38823 9.68906 4.52302 9.55427C4.65781 9.41948 4.84063 9.34375 5.03125 9.34375Z" fill="#B9B9B9"/>
<path d="M14.375 11.5C14.375 12.2625 14.0721 12.9938 13.5329 13.5329C12.9938 14.0721 12.2625 14.375 11.5 14.375C10.7375 14.375 10.0062 14.0721 9.46707 13.5329C8.9279 12.9938 8.625 12.2625 8.625 11.5V4.3125C8.625 3.55 8.9279 2.81874 9.46707 2.27957C10.0062 1.7404 10.7375 1.4375 11.5 1.4375C12.2625 1.4375 12.9938 1.7404 13.5329 2.27957C14.0721 2.81874 14.375 3.55 14.375 4.3125V11.5ZM11.5 0C10.3563 0 9.25935 0.454351 8.4506 1.2631C7.64185 2.07185 7.1875 3.16875 7.1875 4.3125V11.5C7.1875 12.6437 7.64185 13.7406 8.4506 14.5494C9.25935 15.3581 10.3563 15.8125 11.5 15.8125C12.6437 15.8125 13.7406 15.3581 14.5494 14.5494C15.3581 13.7406 15.8125 12.6437 15.8125 11.5V4.3125C15.8125 3.16875 15.3581 2.07185 14.5494 1.2631C13.7406 0.454351 12.6437 0 11.5 0V0Z" fill="#B9B9B9"/>
</svg>
