<svg width="33" height="33" viewBox="0 0 33 33" fill="none" xmlns="http://www.w3.org/2000/svg">
<g clip-path="url(#clip0_3_176)">
<path d="M31.6254 9.73368C31.7281 9.62127 31.7956 9.48119 31.8194 9.33082C31.8432 9.18044 31.8224 9.02638 31.7594 8.88774C31.6965 8.7491 31.5943 8.63197 31.4655 8.55087C31.3366 8.46977 31.1868 8.42827 31.0346 8.43152L6.66771 8.94558L6.66626 8.94503L5.90958 8.95983C5.76623 8.96272 5.62647 9.00517 5.50573 9.0825C5.385 9.15983 5.28799 9.26902 5.22542 9.39803C5.16284 9.52703 5.13715 9.67082 5.15117 9.81351C5.16518 9.9562 5.21837 10.0922 5.30485 10.2066L5.75962 10.8095L5.75998 10.813L11.2947 18.1737L13.1894 27.1862L13.1912 27.1902L13.3455 27.9295C13.375 28.0695 13.4426 28.1987 13.5408 28.3028C13.639 28.4069 13.764 28.4819 13.9021 28.5195C14.0402 28.5572 14.186 28.556 14.3234 28.5161C14.4609 28.4762 14.5846 28.3991 14.6811 28.2934L31.6254 9.73368ZM27.9222 11.4829L12.9092 18.2951L12.7811 17.6853C12.7576 17.5734 12.7099 17.4681 12.6411 17.3768L12.2665 16.8788L27.2795 10.0666L29.2526 10.0253L27.9236 11.4835L27.9222 11.4829Z" fill="#1E5CB9"/>
</g>
<defs>
<clipPath id="clip0_3_176">
<rect width="24.8893" height="24.8893" fill="white" transform="translate(8.75439) rotate(20.5935)"/>
</clipPath>
</defs>
</svg>
