<svg width="38" height="38" viewBox="0 0 38 38" fill="none" xmlns="http://www.w3.org/2000/svg">
<path d="M34.1362 3.95214C34.0278 3.83297 33.8963 3.73704 33.7497 3.67012C33.6031 3.6032 33.4445 3.5667 33.2834 3.56282C33.1223 3.55893 32.9621 3.58775 32.8125 3.64752C32.6629 3.70729 32.5269 3.79678 32.4128 3.91058L31.4948 4.82421C31.3835 4.93555 31.321 5.08651 31.321 5.24392C31.321 5.40132 31.3835 5.55229 31.4948 5.66362L32.3364 6.50378C32.3916 6.55921 32.4571 6.60319 32.5294 6.6332C32.6016 6.66321 32.679 6.67866 32.7572 6.67866C32.8354 6.67866 32.9129 6.66321 32.9851 6.6332C33.0573 6.60319 33.1229 6.55921 33.178 6.50378L34.0731 5.61316C34.5259 5.16116 34.5682 4.42491 34.1362 3.95214ZM29.6385 6.67968L16.2406 20.0539C16.1593 20.1348 16.1003 20.2352 16.0691 20.3456L15.4494 22.1914C15.4346 22.2415 15.4335 22.2946 15.4464 22.3453C15.4592 22.3959 15.4855 22.4421 15.5224 22.4791C15.5594 22.516 15.6056 22.5423 15.6562 22.5551C15.7069 22.568 15.76 22.5669 15.8101 22.5521L17.6544 21.9324C17.7648 21.9012 17.8652 21.8422 17.9461 21.7609L31.3203 8.36148C31.4441 8.23642 31.5135 8.0676 31.5135 7.89167C31.5135 7.71575 31.4441 7.54692 31.3203 7.42187L30.5819 6.67968C30.4567 6.55482 30.287 6.4847 30.1102 6.4847C29.9334 6.4847 29.7638 6.55482 29.6385 6.67968Z" fill="black"/>
<path d="M28.6737 14.3732L19.6271 23.4375C19.2775 23.788 18.8478 24.0481 18.3751 24.1953L16.4528 24.8388C15.9966 24.9676 15.5143 24.9725 15.0556 24.8529C14.5969 24.7333 14.1784 24.4935 13.8432 24.1583C13.508 23.8231 13.2682 23.4046 13.1486 22.9459C13.029 22.4872 13.0339 22.0049 13.1627 21.5487L13.8062 19.6264C13.9529 19.1539 14.2125 18.7241 14.5625 18.3743L23.6268 9.32633C23.7099 9.24333 23.7665 9.13756 23.7895 9.0224C23.8124 8.90723 23.8007 8.78783 23.7559 8.67931C23.711 8.57079 23.6349 8.47802 23.5373 8.41273C23.4397 8.34743 23.3249 8.31255 23.2075 8.3125H7.71875C6.61644 8.3125 5.55929 8.75039 4.77984 9.52984C4.00039 10.3093 3.5625 11.3664 3.5625 12.4688V30.2812C3.5625 31.3836 4.00039 32.4407 4.77984 33.2202C5.55929 33.9996 6.61644 34.4375 7.71875 34.4375H25.5312C26.6336 34.4375 27.6907 33.9996 28.4702 33.2202C29.2496 32.4407 29.6875 31.3836 29.6875 30.2812V14.7925C29.6874 14.6751 29.6526 14.5603 29.5873 14.4627C29.522 14.3651 29.4292 14.289 29.3207 14.2441C29.2122 14.1993 29.0928 14.1876 28.9776 14.2105C28.8624 14.2335 28.7567 14.2901 28.6737 14.3732Z" fill="black"/>
</svg>
