<svg width="19" height="19" viewBox="0 0 19 19" fill="none" xmlns="http://www.w3.org/2000/svg">
<g clip-path="url(#clip0_3_178)">
<path d="M12.3547 6.06813L11.1494 4.86401L5.12287 10.8894C4.88552 11.1268 4.69726 11.4087 4.56884 11.7188C4.44042 12.029 4.37435 12.3615 4.3744 12.6972C4.37446 13.0329 4.44064 13.3653 4.56916 13.6755C4.69768 13.9856 4.88603 14.2674 5.12346 14.5047C5.36089 14.7421 5.64274 14.9303 5.95292 15.0588C6.2631 15.1872 6.59554 15.2532 6.93125 15.2532C7.26697 15.2531 7.59939 15.187 7.90953 15.0584C8.21967 14.9299 8.50146 14.7416 8.7388 14.5041L15.9707 7.27345C16.7697 6.47427 17.2185 5.39043 17.2184 4.26034C17.2183 3.13025 16.7693 2.04649 15.9701 1.24748C15.1709 0.448464 14.0871 -0.00035547 12.957 -0.00024412C11.8269 -0.00013277 10.7431 0.4489 9.94412 1.24807L2.35124 8.83976L2.33462 8.8552C0.0130543 11.1768 0.0130543 14.9388 2.33462 17.2591C4.65618 19.5795 8.41818 19.5795 10.7397 17.2591L10.7552 17.2425L10.7564 17.2437L15.9398 12.0614L14.7345 10.8573L9.55105 16.0384L9.53562 16.0538C8.74015 16.8477 7.66221 17.2936 6.53837 17.2936C5.41452 17.2936 4.33658 16.8477 3.54112 16.0538C3.14682 15.6587 2.8344 15.1896 2.62177 14.6734C2.40914 14.1573 2.30049 13.6042 2.30203 13.046C2.30357 12.4878 2.41529 11.9353 2.63077 11.4204C2.84625 10.9054 3.16127 10.438 3.55774 10.0451L3.55655 10.0439L11.1506 2.4522C12.1469 1.4547 13.7691 1.4547 14.7666 2.4522C15.7641 3.4497 15.7629 5.07063 14.7666 6.06695L7.53468 13.2976C7.37283 13.4465 7.15973 13.5271 6.93988 13.5226C6.72003 13.518 6.51043 13.4287 6.35486 13.2733C6.19929 13.1179 6.10979 12.9084 6.10504 12.6885C6.10029 12.4687 6.18066 12.2555 6.32937 12.0935L12.3559 6.06695L12.3547 6.06813Z" fill="#B9B9B9"/>
</g>
<defs>
<clipPath id="clip0_3_178">
<rect width="19" height="19" fill="white"/>
</clipPath>
</defs>
</svg>
