<svg width="29" height="29" viewBox="0 0 29 29" fill="none" xmlns="http://www.w3.org/2000/svg">
<path d="M22.2684 9.53014C22.6146 7.25001 21.0069 5.20189 18.5509 4.45151C18.1151 4.31826 17.6449 4.35619 17.236 4.55758C16.8272 4.75896 16.5105 5.10865 16.3506 5.53539L15.5621 7.63789C15.4352 7.97613 15.4122 8.34457 15.4962 8.69595C15.5802 9.04732 15.7672 9.36558 16.0334 9.60989L18.3787 11.7577C18.4944 11.8638 18.5805 11.998 18.6288 12.1473C18.6771 12.2966 18.6858 12.4559 18.6542 12.6096L18.6325 12.7038L18.5763 12.9395C18.2846 14.0843 17.8402 15.1847 17.255 16.211C16.6175 17.3016 15.8264 18.2948 14.906 19.16L14.8335 19.2252C14.7164 19.3291 14.5744 19.401 14.4213 19.4337C14.2682 19.4664 14.1092 19.4589 13.9599 19.4119L10.9276 18.4567C10.5829 18.3485 10.2139 18.3457 9.86767 18.4488C9.52147 18.5518 9.21395 18.7559 8.98456 19.0349L7.54906 20.7767C6.95093 21.5017 7.02343 22.5675 7.71037 23.2073C9.58993 24.96 12.1746 25.3188 13.9726 23.8743C16.1765 22.0965 18.0345 19.9283 19.4536 17.478C20.8842 15.0295 21.8398 12.333 22.2702 9.53014H22.2684ZM16.7529 12.7292L14.8099 10.9457C14.2774 10.4573 13.9029 9.82087 13.7346 9.11811C13.5664 8.41536 13.612 7.67835 13.8656 7.0017L14.6522 4.8992C14.9742 4.04053 15.6115 3.33694 16.4343 2.9318C17.257 2.52667 18.2032 2.45048 19.0802 2.71876C22.1306 3.6522 24.5793 6.38726 24.0609 9.80383C23.6984 12.1891 22.8629 15.2232 21.0196 18.3915C19.4885 21.0335 17.4844 23.3713 15.1072 25.288C12.4102 27.454 8.81056 26.7145 6.47243 24.5358C5.80342 23.9129 5.39732 23.0582 5.33703 22.146C5.27674 21.2339 5.56679 20.3331 6.148 19.6276L7.5835 17.884C8.04272 17.3266 8.65796 16.9191 9.35032 16.7137C10.0427 16.5083 10.7806 16.5144 11.4695 16.7312L13.9871 17.5233C14.6371 16.8531 15.2064 16.1091 15.6836 15.3066C16.1444 14.4952 16.5036 13.6302 16.7529 12.731V12.7292Z" fill="black" fill-opacity="0.5"/>
</svg>
